<svg width="60" height="58" viewBox="0 0 60 58" fill="none" xmlns="http://www.w3.org/2000/svg">
<path d="M5.84248 44.8585C5.62219 44.5457 5.32508 44.2961 4.98026 44.134C4.64299 43.9748 4.27486 43.8932 3.90247 43.8949C3.49371 43.8918 3.08956 43.9822 2.72048 44.1594C2.36477 44.3364 2.04733 44.5826 1.7864 44.8838C1.52158 45.1871 1.31453 45.5371 1.17565 45.9162C1.03105 46.3092 0.956852 46.725 0.956505 47.1441C0.953488 47.5778 1.02771 48.0084 1.17565 48.4156C1.31306 48.7913 1.51899 49.1377 1.78281 49.437C2.04258 49.7271 2.35788 49.9612 2.70971 50.1253C3.09833 50.2973 3.51888 50.3837 3.94328 50.3787C4.36768 50.3737 4.78613 50.2774 5.17066 50.0963C5.55519 49.9105 5.8939 49.6408 6.16223 49.3066L6.84842 49.8898C6.52516 50.3389 6.09192 50.6959 5.59099 50.9258C5.06407 51.1512 4.49636 51.2635 3.92403 51.2554C3.3926 51.2588 2.86596 51.1541 2.3756 50.9475C1.90445 50.7489 1.47779 50.4567 1.12103 50.0883C0.764272 49.7199 0.484718 49.2828 0.299047 48.8031C-0.0996822 47.7536 -0.0996822 46.5926 0.299047 45.5431C0.478648 45.0599 0.753263 44.6183 1.1064 44.2448C1.45954 43.8713 1.88393 43.5737 2.35405 43.3697C2.85346 43.1545 3.39169 43.0459 3.93479 43.0509C4.4522 43.0509 4.9651 43.148 5.4473 43.3371C5.93095 43.5295 6.35244 43.8529 6.66521 44.2717L5.84248 44.8585Z" fill="white"/>
<path d="M12.5177 51.2407C11.9629 51.246 11.4124 51.1414 10.8975 50.9328C10.4203 50.736 9.98672 50.4454 9.62208 50.0779C9.2573 49.7078 8.97123 49.2666 8.78139 48.7812C8.38569 47.7311 8.38569 46.5712 8.78139 45.5211C8.97123 45.0357 9.2573 44.5944 9.62208 44.2243C9.98672 43.8568 10.4203 43.5662 10.8975 43.3695C11.9372 42.9608 13.0911 42.9608 14.1308 43.3695C14.6091 43.5662 15.0438 43.8568 15.4098 44.2243C15.7747 44.5937 16.0597 45.0352 16.2469 45.5211C16.6473 46.5703 16.6473 47.732 16.2469 48.7812C16.0597 49.2671 15.7747 49.7086 15.4098 50.0779C15.0438 50.4454 14.6091 50.736 14.1308 50.9328C13.6183 51.1408 13.0702 51.2454 12.5177 51.2407ZM12.5177 50.3822C12.9305 50.3886 13.34 50.3078 13.72 50.145C14.0999 49.9821 14.4418 49.7409 14.7236 49.4368C14.9961 49.1379 15.2084 48.7885 15.3487 48.4081C15.654 47.5909 15.654 46.6897 15.3487 45.8725C15.2084 45.492 14.9961 45.1426 14.7236 44.8437C14.4511 44.5497 14.1224 44.3144 13.7572 44.1519C13.3657 43.9846 12.9448 43.8984 12.5195 43.8984C12.0943 43.8984 11.6734 43.9846 11.2819 44.1519C10.9162 44.3135 10.5873 44.5489 10.3155 44.8437C10.0432 45.1434 9.82982 45.4925 9.68674 45.8725C9.38633 46.6905 9.38633 47.59 9.68674 48.4081C9.82982 48.788 10.0432 49.1371 10.3155 49.4368C10.5873 49.7316 10.9162 49.9671 11.2819 50.1287C11.6703 50.3051 12.0918 50.3953 12.5177 50.3931V50.3822Z" fill="white"/>
<path d="M18.8479 43.2539H20.2095L22.8285 49.3575H22.8501L25.4907 43.2539H26.8236V51.0418H25.9218V44.5217H25.9002L23.1303 51.0418H22.5735L19.8035 44.5217H19.782V51.0418H18.8659L18.8479 43.2539Z" fill="white"/>
<path d="M29.561 43.2534H31.8531C32.1947 43.2526 32.5355 43.2878 32.8699 43.3585C33.1778 43.4219 33.4706 43.5449 33.7321 43.7207C33.9836 43.8864 34.1899 44.1131 34.332 44.38C34.4919 44.6944 34.5698 45.0447 34.5584 45.3978C34.5712 45.7656 34.4882 46.1303 34.3177 46.4555C34.1671 46.7221 33.9552 46.9482 33.6998 47.1148C33.4474 47.276 33.1689 47.3912 32.877 47.4553C32.5975 47.5184 32.312 47.5512 32.0256 47.5531H30.4772V51.0522H29.561V43.2534ZM30.4772 46.6874H32.0292C32.4255 46.7056 32.8171 46.5951 33.1465 46.3722C33.2819 46.2493 33.3902 46.099 33.4643 45.9311C33.5384 45.7633 33.5767 45.5816 33.5767 45.3978C33.5767 45.2141 33.5384 45.0324 33.4643 44.8645C33.3902 44.6967 33.2819 44.5464 33.1465 44.4234C32.8159 44.2035 32.4249 44.0944 32.0292 44.1119H30.4807L30.4772 46.6874Z" fill="white"/>
<path d="M38.5499 43.2539H39.4122L42.6958 51.0418H41.618L40.8349 49.1293H36.98L36.1824 51.0418H35.1477L38.5499 43.2539ZM38.9631 44.442H38.9415L37.3392 48.2708H40.4936L38.9631 44.442Z" fill="white"/>
<path d="M44.5388 43.2539H45.6812L50.1541 49.7233H50.1756V43.2539H51.0917V51.0418H49.9385L45.4621 44.5724H45.4405V51.0418H44.5244L44.5388 43.2539Z" fill="white"/>
<path d="M55.6688 47.6876L52.7947 43.2539H53.9443L56.0999 46.7748L58.3381 43.2539H59.4411L56.5669 47.6876V51.0418H55.6688V47.6876Z" fill="white"/>
<path d="M18.8693 54.8123C18.7895 54.7012 18.6849 54.6106 18.5639 54.5479C18.4264 54.4762 18.2731 54.4413 18.1184 54.4464C18.026 54.4472 17.9342 54.4606 17.8454 54.4863C17.7547 54.513 17.6695 54.5559 17.5939 54.6131C17.518 54.6714 17.4556 54.7455 17.4107 54.8304C17.3617 54.9241 17.337 55.0288 17.3388 55.1347C17.3358 55.2357 17.3593 55.3356 17.4071 55.4245C17.4519 55.5011 17.5118 55.5677 17.5831 55.6201C17.6609 55.6754 17.7454 55.7204 17.8346 55.7541L18.1292 55.8555C18.2585 55.899 18.3843 55.9425 18.5136 55.9932C18.6425 56.0363 18.7638 56.0998 18.8729 56.1815C18.9777 56.2603 19.0636 56.3618 19.1244 56.4785C19.1943 56.6187 19.2277 56.7745 19.2213 56.9313C19.2265 57.0958 19.1906 57.2589 19.1172 57.4058C19.0527 57.5345 18.9607 57.6471 18.8477 57.7355C18.7337 57.8228 18.6046 57.8879 18.4669 57.9275C18.3215 57.9734 18.1702 57.9978 18.0178 57.9999C17.9069 57.9998 17.7962 57.9889 17.6873 57.9673C17.5798 57.945 17.475 57.911 17.3747 57.8659C17.275 57.8205 17.1809 57.7634 17.0945 57.6956C17.0119 57.6232 16.9361 57.5432 16.8682 57.4566L17.1879 57.2175C17.2721 57.3523 17.3865 57.4652 17.522 57.5471C17.6732 57.6366 17.8462 57.6818 18.0214 57.6775C18.1176 57.677 18.2132 57.6623 18.3052 57.6341C18.3994 57.6072 18.4874 57.5616 18.5639 57.5C18.6431 57.4403 18.7081 57.3636 18.7543 57.2755C18.8038 57.1785 18.8296 57.0711 18.8296 56.9621C18.8296 56.8531 18.8038 56.7457 18.7543 56.6488C18.7062 56.5628 18.6384 56.4895 18.5567 56.4351C18.4694 56.3744 18.3738 56.3268 18.2729 56.2938C18.1687 56.254 18.0573 56.2177 17.9388 56.1779C17.8166 56.1417 17.6966 56.0982 17.5795 56.0475C17.4645 56.0028 17.3577 55.9391 17.2634 55.8591C17.1701 55.7805 17.0942 55.683 17.0406 55.573C16.9796 55.4417 16.95 55.2977 16.9544 55.1528C16.9499 54.9938 16.9871 54.8363 17.0622 54.6964C17.1282 54.5707 17.2215 54.4617 17.3352 54.3776C17.4497 54.2958 17.5773 54.2345 17.7124 54.1965C17.8448 54.1598 17.9812 54.1403 18.1184 54.1386C18.3366 54.1335 18.553 54.1794 18.7507 54.2726C18.9055 54.3427 19.0411 54.4496 19.1459 54.5841L18.8693 54.8123Z" fill="white"/>
<path d="M21.4057 57.5655H23.105V57.8952H21.0356V54.2222H21.3949L21.4057 57.5655Z" fill="white"/>
<path d="M28.1349 56.0582C28.1386 56.3236 28.0898 56.5872 27.9912 56.8334C27.9022 57.0622 27.7663 57.2696 27.5924 57.4419C27.4203 57.614 27.2165 57.7505 26.9925 57.844C26.5078 58.0372 25.9683 58.0372 25.4836 57.844C25.2596 57.7505 25.0557 57.614 24.8836 57.4419C24.7097 57.2696 24.5739 57.0622 24.4848 56.8334C24.2883 56.3368 24.2883 55.7832 24.4848 55.2866C24.575 55.0573 24.7107 54.849 24.8836 54.6745C25.0557 54.5024 25.2596 54.3658 25.4836 54.2724C25.9683 54.0791 26.5078 54.0791 26.9925 54.2724C27.2165 54.3658 27.4203 54.5024 27.5924 54.6745C27.7653 54.849 27.901 55.0573 27.9912 55.2866C28.0894 55.5317 28.1382 55.7939 28.1349 56.0582ZM27.7469 56.0582C27.7474 55.8496 27.7122 55.6425 27.6427 55.446C27.5763 55.2582 27.4752 55.0849 27.3446 54.9353C27.2118 54.7826 27.0491 54.6592 26.8667 54.573C26.6691 54.4837 26.4545 54.4392 26.238 54.4426C26.0203 54.4392 25.8045 54.4837 25.6057 54.573C25.4243 54.6591 25.2628 54.7825 25.1315 54.9353C25.0027 55.0912 24.9051 55.2708 24.8441 55.4641C24.7052 55.8602 24.7052 56.2924 24.8441 56.6885C24.9096 56.8755 25.0109 57.0478 25.1423 57.1956C25.2735 57.3484 25.4351 57.4717 25.6165 57.5578C25.8161 57.6442 26.0315 57.6874 26.2488 57.6846C26.4649 57.6874 26.6791 57.6443 26.8775 57.5578C27.0599 57.4716 27.2226 57.3483 27.3553 57.1956C27.4866 57.0478 27.5879 56.8755 27.6535 56.6885C27.7209 56.4867 27.7526 56.2746 27.7469 56.0618V56.0582Z" fill="white"/>
<path d="M32.7012 54.8847C32.5742 54.7492 32.4198 54.643 32.2485 54.5731C32.057 54.4947 31.8516 54.4565 31.6449 54.4608C31.4284 54.4574 31.2138 54.502 31.0162 54.5913C30.8344 54.6783 30.6718 54.8015 30.5384 54.9535C30.4052 55.1025 30.3016 55.2759 30.233 55.4642C30.0893 55.8595 30.0893 56.2933 30.233 56.6886C30.2971 56.8772 30.3991 57.0505 30.5326 57.1976C30.6661 57.3447 30.8283 57.4624 31.009 57.5434C31.2074 57.6299 31.4217 57.6731 31.6377 57.6702C31.8289 57.6721 32.0195 57.6502 32.2054 57.605C32.3519 57.5694 32.4924 57.512 32.6221 57.4348V56.3155H31.7743V55.9858H32.9922V57.6376C32.7915 57.7582 32.575 57.8496 32.3491 57.9093C32.1141 57.9681 31.8727 57.9973 31.6306 57.9962C31.3697 57.9993 31.1108 57.95 30.8689 57.8513C30.6431 57.7609 30.4381 57.6245 30.2669 57.4506C30.0956 57.2767 29.9618 57.0691 29.8738 56.8407C29.7769 56.594 29.7281 56.3308 29.73 56.0655C29.7279 55.801 29.7779 55.5388 29.8774 55.294C29.9676 55.0647 30.1032 54.8564 30.2761 54.6818C30.4483 54.5098 30.6521 54.3732 30.8761 54.2797C31.116 54.1831 31.3722 54.134 31.6306 54.1349C31.8907 54.1285 32.1496 54.1741 32.3922 54.2689C32.6003 54.3502 32.7898 54.4735 32.9491 54.6311L32.7012 54.8847Z" fill="white"/>
<path d="M34.9499 57.8952H34.5439L36.1175 54.2222H36.4768L38.0432 57.8952H37.63L37.2312 56.9316H35.3451L34.9499 57.8952ZM35.4852 56.5875H37.0911L36.2864 54.6387L35.4852 56.5875Z" fill="white"/>
<path d="M42.1893 57.3518V54.2222H42.5486V57.8952H42.0851L39.9655 54.7365V57.8952H39.6062V54.2222H40.0696L42.1893 57.3518Z" fill="white"/>
<path d="M37.8133 18.5641C38.4543 18.3666 39.1419 18.3856 39.7712 18.6184C40.0084 18.7162 40.2419 18.8285 40.4898 18.9517C40.7377 19.0748 40.9389 19.2125 41.1616 19.361C41.6105 19.6673 42.0259 20.0206 42.4011 20.4151C43.2081 21.2848 43.8142 22.3239 44.1758 23.4578C44.5874 24.7574 44.7209 26.1303 44.5674 27.4858C44.3893 29.0152 43.9092 30.4932 43.1555 31.8325C42.6837 32.6565 41.9567 33.3017 41.0862 33.669C40.8856 33.7495 40.6789 33.8137 40.4682 33.861C40.27 33.9051 40.0677 33.9282 39.8647 33.9298C39.4913 33.9416 39.1209 33.8595 38.7869 33.6908C38.5079 33.5417 38.2738 33.3199 38.1088 33.0484C37.9439 32.777 37.8542 32.4659 37.8492 32.1477C37.8297 31.4518 38.0366 30.7686 38.4384 30.2025C38.9407 29.4375 39.2977 28.5851 39.491 27.6886C39.671 26.8549 39.6905 25.9941 39.5485 25.153C39.5162 24.9538 39.4659 24.7509 39.4156 24.559C39.3904 24.4648 39.3617 24.3706 39.333 24.2764C39.3042 24.1823 39.2647 24.0844 39.2288 23.9939C39.1617 23.8112 39.085 23.6322 38.9988 23.4578C38.909 23.2839 38.8156 23.1173 38.7186 22.9543C38.3224 22.3203 37.8204 21.7603 37.2348 21.2989C36.8354 21.0124 36.5241 20.6182 36.3367 20.1615C36.2743 19.9906 36.2668 19.8042 36.3152 19.6287C36.3635 19.4532 36.4653 19.2975 36.6061 19.1835C36.7609 19.0356 36.9379 18.9133 37.1307 18.8213C37.3486 18.7116 37.5774 18.6254 37.8133 18.5641Z" fill="#F1F1F1"/>
<path d="M33.6493 25.566C34.1411 26.0254 34.4694 26.6351 34.5834 27.3011C34.6194 27.5593 34.641 27.8193 34.6481 28.0799C34.6624 28.3441 34.6624 28.609 34.6481 28.8732C34.6265 29.1376 34.5942 29.4057 34.5475 29.6737C34.4994 29.9452 34.4358 30.2137 34.3571 30.4779C34.0166 31.6186 33.4274 32.6681 32.6326 33.5496C31.7216 34.5545 30.6115 35.3554 29.3741 35.9004C27.9703 36.5213 26.4556 36.8467 24.9228 36.8567C23.974 36.8591 23.0509 36.5459 22.2966 35.9656C21.9736 35.7361 21.7029 35.4396 21.5028 35.096C21.3027 34.7524 21.1777 34.3696 21.1362 33.9734C21.126 33.6553 21.2006 33.3403 21.3523 33.0613C21.5039 32.7822 21.7271 32.5493 21.9984 32.3868C22.2756 32.2136 22.5808 32.091 22.9002 32.0246C23.2536 31.9447 23.6168 31.9178 23.978 31.9449C24.8866 32.0065 25.7985 31.8934 26.6652 31.6116C27.074 31.4785 27.4697 31.3075 27.8472 31.1009C28.034 30.9922 28.2065 30.8799 28.3825 30.764C28.5519 30.6525 28.715 30.5315 28.8711 30.4018C29.1767 30.1445 29.457 29.8582 29.7082 29.5469C29.8303 29.3948 29.9453 29.2318 30.0675 29.0724C30.1896 28.913 30.2722 28.7537 30.3621 28.5798C30.7089 27.917 30.9398 27.199 31.0447 26.4571C31.0808 26.1826 31.1508 25.9137 31.2531 25.6566C31.2961 25.5482 31.3466 25.4429 31.4039 25.3415C31.4291 25.298 31.4578 25.2545 31.4866 25.2147L31.5764 25.0988C31.6938 24.9617 31.8503 24.8645 32.0246 24.8204C32.1988 24.7763 32.3823 24.7875 32.55 24.8524C32.6478 24.881 32.7428 24.9186 32.8338 24.9647C32.9333 25.0121 33.0294 25.0666 33.1212 25.1277C33.311 25.2561 33.4879 25.4029 33.6493 25.566Z" fill="white"/>
<path d="M25.5624 25.4319C25.4102 26.0899 25.0495 26.6799 24.5349 27.1126C23.6922 27.769 22.7213 28.2382 21.686 28.4891C20.5359 28.7585 19.341 28.7684 18.1867 28.5181C16.8656 28.2276 15.6204 27.6586 14.533 26.8482C13.2987 25.9288 12.2633 24.7653 11.4901 23.4288C11.0118 22.6024 10.8209 21.6386 10.9476 20.6903C10.9476 20.5817 10.9799 20.473 11.0014 20.368C11.023 20.2629 11.0589 20.1579 11.0913 20.0564C11.1555 19.8639 11.2361 19.6773 11.332 19.4986C11.5116 19.1728 11.7668 18.8957 12.0757 18.6908C12.344 18.5227 12.6521 18.43 12.9679 18.4224C13.2838 18.4147 13.5959 18.4924 13.872 18.6474C14.1621 18.7963 14.4227 18.9977 14.6408 19.2414C14.7623 19.3681 14.8729 19.5051 14.9713 19.6507C15.071 19.8049 15.1621 19.9646 15.2444 20.1289C15.6441 20.9506 16.1952 21.6881 16.8682 22.3023C17.4975 22.8753 18.229 23.3228 19.0238 23.6208C19.396 23.7664 19.7809 23.8767 20.1735 23.9504C20.5534 24.0123 20.9385 24.0365 21.3231 24.0228C21.6966 24.0091 22.0681 23.9618 22.4332 23.8816C22.7924 23.8008 23.1445 23.6905 23.4859 23.552C23.7406 23.4468 24.0073 23.3738 24.2798 23.3346C24.3988 23.318 24.519 23.3107 24.6391 23.3129C24.7381 23.314 24.8368 23.3249 24.9337 23.3455C25.1128 23.377 25.278 23.4635 25.4065 23.5932C25.5351 23.7228 25.6209 23.8893 25.6522 24.0699C25.7303 24.5247 25.6995 24.9916 25.5624 25.4319Z" fill="#F1F1F1"/>
<path d="M21.6357 18.2926C20.9951 18.4936 20.3064 18.4745 19.6777 18.2382C19.4406 18.1404 19.2071 18.0282 18.9592 17.905C18.7284 17.7803 18.5042 17.6437 18.2874 17.4957C17.8385 17.1894 17.423 16.8361 17.0479 16.4416C16.2416 15.5727 15.6356 14.5349 15.2732 13.4025C14.8623 12.1015 14.7277 10.7278 14.878 9.37089C15.0567 7.84162 15.5368 6.36377 16.2899 5.02415C16.7633 4.1992 17.4913 3.55297 18.3628 3.18402C18.5629 3.1031 18.7697 3.04008 18.9808 2.99568C19.1774 2.94862 19.3787 2.92431 19.5807 2.92322C19.9544 2.91285 20.3247 2.99624 20.6585 3.16591C20.9382 3.31407 21.173 3.53568 21.3381 3.80731C21.5031 4.07893 21.5923 4.39048 21.5962 4.70901C21.6134 5.40455 21.4067 6.08699 21.007 6.65417C20.5012 7.41595 20.144 8.26787 19.9544 9.16442C19.7751 9.99811 19.7543 10.8585 19.8933 11.7C19.9292 11.9029 19.9795 12.1021 20.0298 12.2941C20.055 12.3919 20.0837 12.486 20.1125 12.5802C20.1412 12.6744 20.1771 12.7686 20.213 12.8592C20.2849 13.0439 20.3603 13.2214 20.4466 13.3952C20.5328 13.5691 20.6298 13.7394 20.7268 13.8987C21.1218 14.5336 21.624 15.0938 22.2105 15.5541C22.6104 15.8418 22.9217 16.2372 23.1087 16.6951C23.1707 16.8664 23.1776 17.053 23.1286 17.2286C23.0796 17.4041 22.9771 17.5596 22.8357 17.6732C22.6806 17.8191 22.5051 17.9411 22.3147 18.0354C22.0981 18.1452 21.8705 18.2314 21.6357 18.2926Z" fill="white"/>
<path d="M25.7958 11.2943C25.3061 10.8333 24.9782 10.2244 24.8617 9.55922C24.8258 9.29841 24.8078 9.04484 24.797 8.78042C24.7862 8.51599 24.797 8.24794 24.797 7.98351C24.797 7.71908 24.8509 7.45467 24.8976 7.183C24.9454 6.9126 25.0089 6.64528 25.088 6.38247C25.4292 5.24096 26.0183 4.19042 26.8125 3.30715C27.7214 2.30149 28.8306 1.50043 30.0674 0.956289C31.4724 0.335446 32.9883 0.010048 34.5223 0C35.4694 0.00129377 36.3902 0.314165 37.1449 0.89109C37.4684 1.12013 37.7395 1.41649 37.9396 1.76018C38.1398 2.10388 38.2645 2.4869 38.3053 2.88335C38.3165 3.20164 38.2428 3.51711 38.0917 3.79683C37.9407 4.07656 37.7179 4.31025 37.4467 4.47351C37.1675 4.64247 36.8629 4.76479 36.545 4.83574C36.1913 4.91402 35.8282 4.93966 35.4672 4.91182C34.5598 4.8518 33.6493 4.96485 32.7835 5.24506C32.3731 5.37854 31.9762 5.55078 31.5979 5.75944C31.4147 5.86449 31.2386 5.97677 31.0662 6.09269C30.8968 6.20425 30.7337 6.32518 30.5776 6.45492C30.2712 6.71123 29.9908 6.99758 29.7405 7.30977C29.6183 7.46191 29.5034 7.62491 29.3812 7.78429C29.2741 7.94416 29.1758 8.10982 29.0866 8.28054C28.7375 8.94231 28.5065 9.66078 28.404 10.4032C28.3669 10.6776 28.297 10.9464 28.1957 11.2037C28.1533 11.3113 28.1029 11.4154 28.0448 11.5152C28.019 11.5595 27.9901 11.6018 27.9585 11.642C27.9306 11.6822 27.9006 11.7209 27.8687 11.7579C27.7523 11.8953 27.5966 11.9931 27.423 12.0378C27.2493 12.0826 27.0662 12.0721 26.8987 12.0079C26.8008 11.978 26.7058 11.9392 26.6149 11.892C26.5161 11.8445 26.4202 11.7912 26.3275 11.7326C26.138 11.6023 25.9601 11.4557 25.7958 11.2943Z" fill="#F1F1F1"/>
<path d="M33.883 11.4282C34.0342 10.7698 34.3951 10.1795 34.9105 9.74744C35.758 9.0888 36.7356 8.62071 37.7774 8.37461C38.927 8.10209 40.1223 8.09095 41.2766 8.342C42.5984 8.62978 43.8449 9.19642 44.9339 10.0046C46.1675 10.9264 47.2027 12.0909 47.9769 13.4277C48.4551 14.2528 48.6461 15.2154 48.5194 16.1625C48.5061 16.2722 48.4869 16.381 48.4619 16.4885C48.4368 16.5936 48.408 16.6986 48.3757 16.7964C48.3111 16.9906 48.2293 17.1785 48.1314 17.3579C47.9531 17.6825 47.6991 17.9585 47.3913 18.162C47.1233 18.3307 46.8154 18.424 46.4995 18.4323C46.1837 18.4406 45.8714 18.3635 45.595 18.2091C45.3055 18.0576 45.0451 17.8552 44.8262 17.6114C44.7054 17.4827 44.5949 17.3446 44.4956 17.1985C44.3948 17.0444 44.3024 16.8847 44.219 16.7203C43.8208 15.8986 43.2709 15.161 42.5987 14.547C41.9702 13.9737 41.2385 13.5273 40.4431 13.2321C39.7047 12.9625 38.9215 12.8395 38.1367 12.8699C37.7632 12.8836 37.3917 12.9309 37.0265 13.0111C36.6674 13.0907 36.3154 13.1998 35.9739 13.3371C35.7179 13.4423 35.45 13.5153 35.1763 13.5545C35.0572 13.5706 34.9372 13.5791 34.8171 13.5798C34.717 13.5767 34.6173 13.5658 34.5189 13.5472C34.3393 13.5167 34.1737 13.4305 34.0449 13.3007C33.9161 13.1709 33.8307 13.0038 33.8004 12.8228C33.7147 12.3581 33.743 11.8793 33.883 11.4282Z" fill="white"/>
</svg>
